<svg xmlns="http://www.w3.org/2000/svg" xmlns:xlink="http://www.w3.org/1999/xlink" width="269" zoomAndPan="magnify" viewBox="0 0 201.75 66" height="88" preserveAspectRatio="xMidYMid meet" version="1.0"><defs><g/><clipPath id="1b1b708059"><path d="M 0.878906 12.59375 L 41.714844 12.59375 L 41.714844 53.117188 L 0.878906 53.117188 Z M 0.878906 12.59375 " clip-rule="nonzero"/></clipPath><clipPath id="ff96036b22"><path d="M 21.238281 12.59375 C 9.992188 12.59375 0.878906 21.667969 0.878906 32.855469 C 0.878906 44.046875 9.992188 53.117188 21.238281 53.117188 C 32.480469 53.117188 41.597656 44.046875 41.597656 32.855469 C 41.597656 21.667969 32.480469 12.59375 21.238281 12.59375 Z M 21.238281 12.59375 " clip-rule="nonzero"/></clipPath><clipPath id="2e12d3180b"><path d="M 0.878906 0.59375 L 41.707031 0.59375 L 41.707031 41.117188 L 0.878906 41.117188 Z M 0.878906 0.59375 " clip-rule="nonzero"/></clipPath><clipPath id="76c1642840"><path d="M 21.238281 0.59375 C 9.992188 0.59375 0.878906 9.667969 0.878906 20.855469 C 0.878906 32.046875 9.992188 41.117188 21.238281 41.117188 C 32.480469 41.117188 41.597656 32.046875 41.597656 20.855469 C 41.597656 9.667969 32.480469 0.59375 21.238281 0.59375 Z M 21.238281 0.59375 " clip-rule="nonzero"/></clipPath><clipPath id="29ba4945e0"><rect x="0" width="42" y="0" height="42"/></clipPath></defs><g fill="#ffffff" fill-opacity="1"><g transform="translate(54.687118, 30.593983)"><g><path d="M 0.6875 -7.375 C 0.6875 -8.832031 1 -10.128906 1.625 -11.265625 C 2.257812 -12.410156 3.140625 -13.300781 4.265625 -13.9375 C 5.390625 -14.570312 6.664062 -14.890625 8.09375 -14.890625 C 9.84375 -14.890625 11.335938 -14.425781 12.578125 -13.5 C 13.828125 -12.582031 14.660156 -11.328125 15.078125 -9.734375 L 11.140625 -9.734375 C 10.835938 -10.347656 10.414062 -10.8125 9.875 -11.125 C 9.34375 -11.445312 8.734375 -11.609375 8.046875 -11.609375 C 6.941406 -11.609375 6.046875 -11.222656 5.359375 -10.453125 C 4.679688 -9.691406 4.34375 -8.664062 4.34375 -7.375 C 4.34375 -6.09375 4.679688 -5.066406 5.359375 -4.296875 C 6.046875 -3.523438 6.941406 -3.140625 8.046875 -3.140625 C 8.734375 -3.140625 9.34375 -3.300781 9.875 -3.625 C 10.414062 -3.945312 10.835938 -4.414062 11.140625 -5.03125 L 15.078125 -5.03125 C 14.660156 -3.4375 13.828125 -2.179688 12.578125 -1.265625 C 11.335938 -0.347656 9.84375 0.109375 8.09375 0.109375 C 6.664062 0.109375 5.390625 -0.207031 4.265625 -0.84375 C 3.140625 -1.476562 2.257812 -2.363281 1.625 -3.5 C 1 -4.632812 0.6875 -5.925781 0.6875 -7.375 Z M 0.6875 -7.375 "/></g></g></g><g fill="#ffffff" fill-opacity="1"><g transform="translate(70.66938, 30.593983)"><g><path d="M 8.265625 0.140625 C 6.878906 0.140625 5.609375 -0.175781 4.453125 -0.8125 C 3.296875 -1.457031 2.378906 -2.351562 1.703125 -3.5 C 1.023438 -4.65625 0.6875 -5.957031 0.6875 -7.40625 C 0.6875 -8.84375 1.023438 -10.132812 1.703125 -11.28125 C 2.378906 -12.425781 3.296875 -13.320312 4.453125 -13.96875 C 5.609375 -14.613281 6.878906 -14.9375 8.265625 -14.9375 C 9.648438 -14.9375 10.914062 -14.613281 12.0625 -13.96875 C 13.21875 -13.320312 14.128906 -12.425781 14.796875 -11.28125 C 15.460938 -10.132812 15.796875 -8.84375 15.796875 -7.40625 C 15.796875 -5.957031 15.457031 -4.65625 14.78125 -3.5 C 14.113281 -2.351562 13.207031 -1.457031 12.0625 -0.8125 C 10.914062 -0.175781 9.648438 0.140625 8.265625 0.140625 Z M 8.265625 -3.125 C 9.429688 -3.125 10.367188 -3.515625 11.078125 -4.296875 C 11.785156 -5.078125 12.140625 -6.113281 12.140625 -7.40625 C 12.140625 -8.707031 11.785156 -9.742188 11.078125 -10.515625 C 10.367188 -11.285156 9.429688 -11.671875 8.265625 -11.671875 C 7.078125 -11.671875 6.128906 -11.285156 5.421875 -10.515625 C 4.710938 -9.753906 4.359375 -8.71875 4.359375 -7.40625 C 4.359375 -6.101562 4.710938 -5.0625 5.421875 -4.28125 C 6.128906 -3.507812 7.078125 -3.125 8.265625 -3.125 Z M 8.265625 -3.125 "/></g></g></g><g fill="#ffffff" fill-opacity="1"><g transform="translate(87.155017, 30.593983)"><g><path d="M 14.46875 0 L 10.875 0 L 4.890625 -9.078125 L 4.890625 0 L 1.296875 0 L 1.296875 -14.71875 L 4.890625 -14.71875 L 10.875 -5.59375 L 10.875 -14.71875 L 14.46875 -14.71875 Z M 14.46875 0 "/></g></g></g><g fill="#ffffff" fill-opacity="1"><g transform="translate(102.92754, 30.593983)"><g><path d="M 0.6875 -7.375 C 0.6875 -8.832031 1 -10.128906 1.625 -11.265625 C 2.257812 -12.410156 3.140625 -13.300781 4.265625 -13.9375 C 5.390625 -14.570312 6.664062 -14.890625 8.09375 -14.890625 C 9.84375 -14.890625 11.335938 -14.425781 12.578125 -13.5 C 13.828125 -12.582031 14.660156 -11.328125 15.078125 -9.734375 L 11.140625 -9.734375 C 10.835938 -10.347656 10.414062 -10.8125 9.875 -11.125 C 9.34375 -11.445312 8.734375 -11.609375 8.046875 -11.609375 C 6.941406 -11.609375 6.046875 -11.222656 5.359375 -10.453125 C 4.679688 -9.691406 4.34375 -8.664062 4.34375 -7.375 C 4.34375 -6.09375 4.679688 -5.066406 5.359375 -4.296875 C 6.046875 -3.523438 6.941406 -3.140625 8.046875 -3.140625 C 8.734375 -3.140625 9.34375 -3.300781 9.875 -3.625 C 10.414062 -3.945312 10.835938 -4.414062 11.140625 -5.03125 L 15.078125 -5.03125 C 14.660156 -3.4375 13.828125 -2.179688 12.578125 -1.265625 C 11.335938 -0.347656 9.84375 0.109375 8.09375 0.109375 C 6.664062 0.109375 5.390625 -0.207031 4.265625 -0.84375 C 3.140625 -1.476562 2.257812 -2.363281 1.625 -3.5 C 1 -4.632812 0.6875 -5.925781 0.6875 -7.375 Z M 0.6875 -7.375 "/></g></g></g><g fill="#ffffff" fill-opacity="1"><g transform="translate(118.909802, 30.593983)"><g><path d="M 4.890625 -14.71875 L 4.890625 0 L 1.296875 0 L 1.296875 -14.71875 Z M 4.890625 -14.71875 "/></g></g></g><g fill="#ffffff" fill-opacity="1"><g transform="translate(125.097165, 30.593983)"><g><path d="M 4.890625 -11.84375 L 4.890625 -8.875 L 9.6875 -8.875 L 9.6875 -6.109375 L 4.890625 -6.109375 L 4.890625 -2.875 L 10.3125 -2.875 L 10.3125 0 L 1.296875 0 L 1.296875 -14.71875 L 10.3125 -14.71875 L 10.3125 -11.84375 Z M 4.890625 -11.84375 "/></g></g></g><g fill="#ffffff" fill-opacity="1"><g transform="translate(136.444146, 30.593983)"><g><path d="M 14.46875 0 L 10.875 0 L 4.890625 -9.078125 L 4.890625 0 L 1.296875 0 L 1.296875 -14.71875 L 4.890625 -14.71875 L 10.875 -5.59375 L 10.875 -14.71875 L 14.46875 -14.71875 Z M 14.46875 0 "/></g></g></g><g fill="#ffffff" fill-opacity="1"><g transform="translate(152.216669, 30.593983)"><g><path d="M 0.6875 -7.375 C 0.6875 -8.832031 1 -10.128906 1.625 -11.265625 C 2.257812 -12.410156 3.140625 -13.300781 4.265625 -13.9375 C 5.390625 -14.570312 6.664062 -14.890625 8.09375 -14.890625 C 9.84375 -14.890625 11.335938 -14.425781 12.578125 -13.5 C 13.828125 -12.582031 14.660156 -11.328125 15.078125 -9.734375 L 11.140625 -9.734375 C 10.835938 -10.347656 10.414062 -10.8125 9.875 -11.125 C 9.34375 -11.445312 8.734375 -11.609375 8.046875 -11.609375 C 6.941406 -11.609375 6.046875 -11.222656 5.359375 -10.453125 C 4.679688 -9.691406 4.34375 -8.664062 4.34375 -7.375 C 4.34375 -6.09375 4.679688 -5.066406 5.359375 -4.296875 C 6.046875 -3.523438 6.941406 -3.140625 8.046875 -3.140625 C 8.734375 -3.140625 9.34375 -3.300781 9.875 -3.625 C 10.414062 -3.945312 10.835938 -4.414062 11.140625 -5.03125 L 15.078125 -5.03125 C 14.660156 -3.4375 13.828125 -2.179688 12.578125 -1.265625 C 11.335938 -0.347656 9.84375 0.109375 8.09375 0.109375 C 6.664062 0.109375 5.390625 -0.207031 4.265625 -0.84375 C 3.140625 -1.476562 2.257812 -2.363281 1.625 -3.5 C 1 -4.632812 0.6875 -5.925781 0.6875 -7.375 Z M 0.6875 -7.375 "/></g></g></g><g fill="#ffffff" fill-opacity="1"><g transform="translate(168.198931, 30.593983)"><g><path d="M 4.890625 -14.71875 L 4.890625 0 L 1.296875 0 L 1.296875 -14.71875 Z M 4.890625 -14.71875 "/></g></g></g><g fill="#ffffff" fill-opacity="1"><g transform="translate(174.386294, 30.593983)"><g><path d="M 10.46875 -2.59375 L 4.96875 -2.59375 L 4.09375 0 L 0.328125 0 L 5.65625 -14.71875 L 9.8125 -14.71875 L 15.140625 0 L 11.34375 0 Z M 9.546875 -5.375 L 7.71875 -10.75 L 5.90625 -5.375 Z M 9.546875 -5.375 "/></g></g></g><g fill="#ffffff" fill-opacity="1"><g transform="translate(54.687118, 49.320776)"><g><path d="M 0.6875 -7.375 C 0.6875 -8.832031 1 -10.128906 1.625 -11.265625 C 2.257812 -12.410156 3.140625 -13.300781 4.265625 -13.9375 C 5.390625 -14.570312 6.664062 -14.890625 8.09375 -14.890625 C 9.84375 -14.890625 11.335938 -14.425781 12.578125 -13.5 C 13.828125 -12.582031 14.660156 -11.328125 15.078125 -9.734375 L 11.140625 -9.734375 C 10.835938 -10.347656 10.414062 -10.8125 9.875 -11.125 C 9.34375 -11.445312 8.734375 -11.609375 8.046875 -11.609375 C 6.941406 -11.609375 6.046875 -11.222656 5.359375 -10.453125 C 4.679688 -9.691406 4.34375 -8.664062 4.34375 -7.375 C 4.34375 -6.09375 4.679688 -5.066406 5.359375 -4.296875 C 6.046875 -3.523438 6.941406 -3.140625 8.046875 -3.140625 C 8.734375 -3.140625 9.34375 -3.300781 9.875 -3.625 C 10.414062 -3.945312 10.835938 -4.414062 11.140625 -5.03125 L 15.078125 -5.03125 C 14.660156 -3.4375 13.828125 -2.179688 12.578125 -1.265625 C 11.335938 -0.347656 9.84375 0.109375 8.09375 0.109375 C 6.664062 0.109375 5.390625 -0.207031 4.265625 -0.84375 C 3.140625 -1.476562 2.257812 -2.363281 1.625 -3.5 C 1 -4.632812 0.6875 -5.925781 0.6875 -7.375 Z M 0.6875 -7.375 "/></g></g></g><g fill="#ffffff" fill-opacity="1"><g transform="translate(70.66938, 49.320776)"><g><path d="M 8.265625 0.140625 C 6.878906 0.140625 5.609375 -0.175781 4.453125 -0.8125 C 3.296875 -1.457031 2.378906 -2.351562 1.703125 -3.5 C 1.023438 -4.65625 0.6875 -5.957031 0.6875 -7.40625 C 0.6875 -8.84375 1.023438 -10.132812 1.703125 -11.28125 C 2.378906 -12.425781 3.296875 -13.320312 4.453125 -13.96875 C 5.609375 -14.613281 6.878906 -14.9375 8.265625 -14.9375 C 9.648438 -14.9375 10.914062 -14.613281 12.0625 -13.96875 C 13.21875 -13.320312 14.128906 -12.425781 14.796875 -11.28125 C 15.460938 -10.132812 15.796875 -8.84375 15.796875 -7.40625 C 15.796875 -5.957031 15.457031 -4.65625 14.78125 -3.5 C 14.113281 -2.351562 13.207031 -1.457031 12.0625 -0.8125 C 10.914062 -0.175781 9.648438 0.140625 8.265625 0.140625 Z M 8.265625 -3.125 C 9.429688 -3.125 10.367188 -3.515625 11.078125 -4.296875 C 11.785156 -5.078125 12.140625 -6.113281 12.140625 -7.40625 C 12.140625 -8.707031 11.785156 -9.742188 11.078125 -10.515625 C 10.367188 -11.285156 9.429688 -11.671875 8.265625 -11.671875 C 7.078125 -11.671875 6.128906 -11.285156 5.421875 -10.515625 C 4.710938 -9.753906 4.359375 -8.71875 4.359375 -7.40625 C 4.359375 -6.101562 4.710938 -5.0625 5.421875 -4.28125 C 6.128906 -3.507812 7.078125 -3.125 8.265625 -3.125 Z M 8.265625 -3.125 "/></g></g></g><g fill="#ffffff" fill-opacity="1"><g transform="translate(87.155017, 49.320776)"><g><path d="M 14.46875 0 L 10.875 0 L 4.890625 -9.078125 L 4.890625 0 L 1.296875 0 L 1.296875 -14.71875 L 4.890625 -14.71875 L 10.875 -5.59375 L 10.875 -14.71875 L 14.46875 -14.71875 Z M 14.46875 0 "/></g></g></g><g fill="#ffffff" fill-opacity="1"><g transform="translate(102.92754, 49.320776)"><g/></g></g><g fill="#ffffff" fill-opacity="1"><g transform="translate(107.374045, 49.320776)"><g><path d="M 8.265625 0.140625 C 6.878906 0.140625 5.609375 -0.175781 4.453125 -0.8125 C 3.296875 -1.457031 2.378906 -2.351562 1.703125 -3.5 C 1.023438 -4.65625 0.6875 -5.957031 0.6875 -7.40625 C 0.6875 -8.84375 1.023438 -10.132812 1.703125 -11.28125 C 2.378906 -12.425781 3.296875 -13.320312 4.453125 -13.96875 C 5.609375 -14.613281 6.878906 -14.9375 8.265625 -14.9375 C 9.648438 -14.9375 10.914062 -14.613281 12.0625 -13.96875 C 13.21875 -13.320312 14.128906 -12.425781 14.796875 -11.28125 C 15.460938 -10.132812 15.796875 -8.84375 15.796875 -7.40625 C 15.796875 -5.957031 15.457031 -4.65625 14.78125 -3.5 C 14.113281 -2.351562 13.207031 -1.457031 12.0625 -0.8125 C 10.914062 -0.175781 9.648438 0.140625 8.265625 0.140625 Z M 8.265625 -3.125 C 9.429688 -3.125 10.367188 -3.515625 11.078125 -4.296875 C 11.785156 -5.078125 12.140625 -6.113281 12.140625 -7.40625 C 12.140625 -8.707031 11.785156 -9.742188 11.078125 -10.515625 C 10.367188 -11.285156 9.429688 -11.671875 8.265625 -11.671875 C 7.078125 -11.671875 6.128906 -11.285156 5.421875 -10.515625 C 4.710938 -9.753906 4.359375 -8.71875 4.359375 -7.40625 C 4.359375 -6.101562 4.710938 -5.0625 5.421875 -4.28125 C 6.128906 -3.507812 7.078125 -3.125 8.265625 -3.125 Z M 8.265625 -3.125 "/></g></g></g><g fill="#ffffff" fill-opacity="1"><g transform="translate(123.859681, 49.320776)"><g><path d="M 14.46875 0 L 10.875 0 L 4.890625 -9.078125 L 4.890625 0 L 1.296875 0 L 1.296875 -14.71875 L 4.890625 -14.71875 L 10.875 -5.59375 L 10.875 -14.71875 L 14.46875 -14.71875 Z M 14.46875 0 "/></g></g></g><g fill="#ffffff" fill-opacity="1"><g transform="translate(139.632204, 49.320776)"><g><path d="M 6.8125 -14.71875 C 8.363281 -14.71875 9.71875 -14.410156 10.875 -13.796875 C 12.039062 -13.179688 12.941406 -12.316406 13.578125 -11.203125 C 14.210938 -10.097656 14.53125 -8.816406 14.53125 -7.359375 C 14.53125 -5.921875 14.210938 -4.640625 13.578125 -3.515625 C 12.941406 -2.398438 12.039062 -1.535156 10.875 -0.921875 C 9.707031 -0.304688 8.351562 0 6.8125 0 L 1.296875 0 L 1.296875 -14.71875 Z M 6.578125 -3.109375 C 7.941406 -3.109375 9 -3.476562 9.75 -4.21875 C 10.5 -4.957031 10.875 -6.003906 10.875 -7.359375 C 10.875 -8.710938 10.5 -9.765625 9.75 -10.515625 C 9 -11.273438 7.941406 -11.65625 6.578125 -11.65625 L 4.890625 -11.65625 L 4.890625 -3.109375 Z M 6.578125 -3.109375 "/></g></g></g><g fill="#ffffff" fill-opacity="1"><g transform="translate(154.880367, 49.320776)"><g><path d="M 10.46875 -2.59375 L 4.96875 -2.59375 L 4.09375 0 L 0.328125 0 L 5.65625 -14.71875 L 9.8125 -14.71875 L 15.140625 0 L 11.34375 0 Z M 9.546875 -5.375 L 7.71875 -10.75 L 5.90625 -5.375 Z M 9.546875 -5.375 "/></g></g></g><g clip-path="url(#1b1b708059)"><g clip-path="url(#ff96036b22)"><g transform="matrix(1, 0, 0, 1, 0, 12)"><g clip-path="url(#29ba4945e0)"><g clip-path="url(#2e12d3180b)"><g clip-path="url(#76c1642840)"><path fill="#ffed00" d="M 0.878906 0.59375 L 41.554688 0.59375 L 41.554688 41.117188 L 0.878906 41.117188 Z M 0.878906 0.59375 " fill-opacity="1" fill-rule="nonzero"/></g></g></g></g></g></g><path fill="#171717" d="M 26.242188 12.429688 C 27.390625 12.667969 28.453125 13.203125 29.519531 13.675781 C 31.757812 14.660156 33.917969 15.796875 35.78125 17.398438 C 38.238281 19.523438 39.742188 22.28125 40.855469 25.289062 C 41.34375 26.605469 41.59375 27.957031 41.878906 29.3125 C 41.878906 31.054688 43.480469 37.042969 38.507812 45.597656 C 37.246094 47.804688 35.152344 49.1875 33.125 50.625 C 30.90625 52.191406 28.503906 53.210938 25.785156 53.570312 C 24.757812 53.699219 15.007812 55.304688 8.636719 50.183594 C 7.355469 49.453125 6.542969 48.25 5.546875 47.226562 C 4.210938 45.867188 3.191406 44.34375 2.476562 42.601562 C 1.636719 40.546875 0 35.585938 0.59375 29.210938 C 0.925781 25.613281 2.320312 22.292969 4.378906 19.265625 C 6.214844 16.574219 8.347656 14.3125 11.5 13.152344 C 19.042969 10.375 24.953125 12.160156 26.242188 12.429688 Z M 39.09375 31.574219 C 39.042969 30.628906 39.109375 29.679688 38.933594 28.730469 C 38.367188 25.578125 37.132812 22.765625 34.953125 20.394531 C 33.140625 18.433594 30.804688 17.261719 28.429688 16.171875 C 26.925781 15.480469 25.410156 14.84375 23.671875 14.804688 C 22.820312 14.785156 17.933594 14.347656 16.417969 14.5625 C 12.902344 15.0625 9.71875 16.359375 7.402344 19.261719 C 6.117188 20.871094 5.175781 22.574219 4.566406 24.601562 C 3.371094 28.558594 3.15625 34.230469 3.414062 35.753906 C 3.929688 38.816406 5.136719 41.648438 6.515625 44.433594 C 7.324219 46.054688 8.730469 47.125 10.058594 47.992188 C 12.8125 49.789062 16.003906 50.785156 19.320312 51.082031 C 21.882812 51.304688 24.417969 50.875 26.914062 50.285156 C 29.332031 49.703125 31.199219 48.136719 33.125 46.695312 C 34.683594 45.523438 36.15625 44.226562 36.875 42.375 C 38.238281 38.910156 39.175781 35.339844 39.09375 31.574219 Z M 39.09375 31.574219 " fill-opacity="1" fill-rule="nonzero"/><path fill="#171717" d="M 21.304688 44.136719 C 17.457031 44.167969 14.386719 42.726562 11.988281 39.902344 C 10.566406 38.230469 9.136719 36.519531 8.855469 34.21875 C 8.761719 33.433594 8.476562 32.644531 8.765625 31.84375 C 8.898438 31.472656 8.949219 31.046875 9.5 31.027344 C 10.039062 31.011719 10.296875 31.355469 10.457031 31.761719 C 10.742188 32.484375 10.910156 33.246094 11.230469 33.941406 C 11.980469 35.585938 12.714844 37.25 14.074219 38.511719 C 15.859375 40.160156 17.957031 41.273438 20.402344 41.28125 C 23.167969 41.292969 25.679688 40.320312 27.835938 38.542969 C 28.886719 37.675781 29.753906 36.648438 30.449219 35.460938 C 30.6875 35.050781 30.988281 34.457031 31.65625 34.769531 C 32.238281 35.039062 32.09375 35.570312 32 36.066406 C 31.179688 40.554688 28.386719 42.734375 23.773438 43.929688 C 22.914062 44.167969 22.050781 44.082031 21.304688 44.136719 Z M 21.304688 44.136719 " fill-opacity="1" fill-rule="nonzero"/><path fill="#171717" d="M 27.300781 30.390625 C 26.59375 31.292969 25.285156 31.089844 24.75 30.058594 C 24.125 28.835938 24.371094 27.59375 24.746094 26.390625 C 24.976562 25.660156 26.011719 25.3125 26.882812 25.535156 C 27.753906 25.757812 28.46875 26.972656 28.367188 27.75 C 28.167969 29.324219 27.828125 29.714844 27.300781 30.390625 Z M 27.300781 30.390625 " fill-opacity="1" fill-rule="nonzero"/><path fill="#171717" d="M 18.101562 28.960938 C 17.726562 29.792969 16.617188 29.574219 16.015625 29.292969 C 14.488281 28.585938 14.574219 25.660156 15.796875 24.503906 C 16.378906 23.960938 17.183594 23.773438 17.964844 24.109375 C 18.660156 24.40625 19.398438 26.078125 18.101562 28.960938 Z M 18.101562 28.960938 " fill-opacity="1" fill-rule="nonzero"/></svg>