<svg xmlns="http://www.w3.org/2000/svg" xmlns:xlink="http://www.w3.org/1999/xlink" width="218" zoomAndPan="magnify" viewBox="0 0 163.5 168.75" height="225" preserveAspectRatio="xMidYMid meet" version="1.0"><defs><clipPath id="4aaac3c244"><path d="M 3.316406 6.558594 L 157.761719 6.558594 L 157.761719 159.808594 L 3.316406 159.808594 Z M 3.316406 6.558594 " clip-rule="nonzero"/></clipPath><clipPath id="e664b21164"><path d="M 80.320312 6.558594 C 37.792969 6.558594 3.316406 40.863281 3.316406 83.183594 C 3.316406 125.5 37.792969 159.808594 80.320312 159.808594 C 122.847656 159.808594 157.324219 125.5 157.324219 83.183594 C 157.324219 40.863281 122.847656 6.558594 80.320312 6.558594 Z M 80.320312 6.558594 " clip-rule="nonzero"/></clipPath><clipPath id="ba345e2ea7"><path d="M 0.316406 0.558594 L 154.4375 0.558594 L 154.4375 153.808594 L 0.316406 153.808594 Z M 0.316406 0.558594 " clip-rule="nonzero"/></clipPath><clipPath id="29021d5c94"><path d="M 77.320312 0.558594 C 34.792969 0.558594 0.316406 34.863281 0.316406 77.183594 C 0.316406 119.5 34.792969 153.808594 77.320312 153.808594 C 119.847656 153.808594 154.324219 119.5 154.324219 77.183594 C 154.324219 34.863281 119.847656 0.558594 77.320312 0.558594 Z M 77.320312 0.558594 " clip-rule="nonzero"/></clipPath><clipPath id="7bea56af64"><rect x="0" width="155" y="0" height="154"/></clipPath></defs><g clip-path="url(#4aaac3c244)"><g clip-path="url(#e664b21164)"><g transform="matrix(1, 0, 0, 1, 3, 6)"><g clip-path="url(#7bea56af64)"><g clip-path="url(#ba345e2ea7)"><g clip-path="url(#29021d5c94)"><path fill="#ffed00" d="M 0.316406 0.558594 L 154.164062 0.558594 L 154.164062 153.808594 L 0.316406 153.808594 Z M 0.316406 0.558594 " fill-opacity="1" fill-rule="nonzero"/></g></g></g></g></g></g><path fill="#171717" d="M 98.089844 7.835938 C 102.375 8.726562 106.359375 10.71875 110.339844 12.5 C 118.699219 16.175781 126.78125 20.414062 133.738281 26.410156 C 142.917969 34.351562 148.539062 44.65625 152.707031 55.898438 C 154.535156 60.816406 155.472656 65.875 156.527344 70.933594 C 156.527344 77.445312 162.523438 99.835938 143.925781 131.808594 C 139.21875 140.050781 131.394531 145.230469 123.804688 150.59375 C 115.515625 156.449219 106.542969 160.265625 96.378906 161.601562 C 92.539062 162.09375 56.09375 168.089844 32.273438 148.953125 C 27.496094 146.210938 24.453125 141.714844 20.726562 137.898438 C 15.738281 132.816406 11.921875 127.125 9.25 120.613281 C 6.113281 112.929688 0 94.378906 2.226562 70.5625 C 3.464844 57.117188 8.664062 44.703125 16.371094 33.390625 C 23.234375 23.320312 31.199219 14.863281 42.980469 10.53125 C 71.179688 0.15625 93.265625 6.832031 98.089844 7.835938 Z M 146.128906 79.390625 C 145.941406 75.855469 146.175781 72.316406 145.519531 68.757812 C 143.410156 56.976562 138.796875 46.460938 130.644531 37.605469 C 123.875 30.277344 115.140625 25.894531 106.265625 21.820312 C 100.644531 19.242188 94.972656 16.855469 88.488281 16.714844 C 85.300781 16.644531 67.03125 15.003906 61.363281 15.800781 C 48.226562 17.675781 36.328125 22.523438 27.660156 33.367188 C 22.859375 39.386719 19.347656 45.757812 17.074219 53.324219 C 12.601562 68.125 11.804688 89.320312 12.765625 95.011719 C 14.683594 106.464844 19.207031 117.050781 24.359375 127.453125 C 27.378906 133.519531 32.625 137.523438 37.589844 140.753906 C 47.898438 147.476562 59.820312 151.203125 72.207031 152.300781 C 81.789062 153.144531 91.273438 151.527344 100.597656 149.328125 C 109.636719 147.148438 116.617188 141.292969 123.804688 135.90625 C 129.636719 131.527344 135.144531 126.679688 137.835938 119.769531 C 142.917969 106.816406 146.433594 93.46875 146.128906 79.390625 Z M 146.128906 79.390625 " fill-opacity="1" fill-rule="nonzero"/><path fill="#171717" d="M 79.632812 126.351562 C 65.253906 126.46875 53.777344 121.082031 44.804688 110.519531 C 39.488281 104.265625 34.148438 97.871094 33.09375 89.273438 C 32.742188 86.347656 31.6875 83.394531 32.765625 80.398438 C 33.257812 79.015625 33.445312 77.421875 35.507812 77.351562 C 37.519531 77.28125 38.480469 78.570312 39.089844 80.09375 C 40.144531 82.785156 40.777344 85.644531 41.972656 88.242188 C 44.78125 94.378906 47.523438 100.609375 52.605469 105.320312 C 59.28125 111.476562 67.125 115.648438 76.261719 115.671875 C 86.589844 115.71875 95.980469 112.085938 104.039062 105.433594 C 107.972656 102.203125 111.207031 98.363281 113.804688 93.910156 C 114.695312 92.390625 115.820312 90.164062 118.324219 91.335938 C 120.503906 92.34375 119.964844 94.332031 119.613281 96.183594 C 116.546875 112.953125 106.101562 121.105469 88.863281 125.578125 C 85.652344 126.46875 82.421875 126.140625 79.632812 126.351562 Z M 79.632812 126.351562 " fill-opacity="1" fill-rule="nonzero"/><path fill="#171717" d="M 102.046875 74.964844 C 99.402344 78.335938 94.507812 77.585938 92.515625 73.722656 C 90.171875 69.15625 91.085938 64.519531 92.492188 60.019531 C 93.359375 57.28125 97.222656 55.992188 100.480469 56.8125 C 103.734375 57.65625 106.40625 62.199219 106.03125 65.101562 C 105.28125 70.980469 104.015625 72.433594 102.046875 74.964844 Z M 102.046875 74.964844 " fill-opacity="1" fill-rule="nonzero"/><path fill="#171717" d="M 67.664062 69.625 C 66.257812 72.738281 62.113281 71.917969 59.867188 70.863281 C 54.152344 68.21875 54.480469 57.28125 59.046875 52.972656 C 61.222656 50.933594 64.222656 50.230469 67.148438 51.496094 C 69.75 52.597656 72.511719 58.851562 67.664062 69.625 Z M 67.664062 69.625 " fill-opacity="1" fill-rule="nonzero"/></svg>